<svg xmlns="http://www.w3.org/2000/svg" version="1.1" xmlns:xlink="http://www.w3.org/1999/xlink" xmlns:svgjs="http://svgjs.dev/svgjs" width="1000" height="1000" viewBox="0 0 1000 1000"><rect width="1000" height="1000" fill="#000000"></rect><g transform="matrix(0.7,0,0,0.7,150.0000000000001,106.25)"><svg viewBox="0 0 320 360" data-background-color="#ffffff" preserveAspectRatio="xMidYMid meet" height="1125" width="1000" xmlns="http://www.w3.org/2000/svg" xmlns:xlink="http://www.w3.org/1999/xlink"><g id="tight-bounds" transform="matrix(1,0,0,1,0,0)"><svg viewBox="0 0 320 360" height="360" width="320"><g><svg></svg></g><g><svg viewBox="0 0 320 360" height="360" width="320"><g><path xmlns="http://www.w3.org/2000/svg" d="M20.961 227.22l3.726 4.658-1.863-6.056c-0.466-2.795-3.726 0.466-1.863 1.398M25.153 224.425c1.397 2.329 2.795 4.658 2.795 6.987 0 3.261 2.795 4.658 5.123 5.589-3.261-3.726-5.124-13.974-7.918-12.576M204.017 26.929c7.918 0 15.371-0.932 23.756 0.931 20.495 5.124 37.729 15.371 49.374 29.811l32.606 52.169c1.397 13.042 4.192 27.482 3.726 43.319 3.261 0 2.795-4.658 6.521-5.59-3.726 9.316-5.59 20.961-6.521 34.469-2.329-7.453 0-18.632 0.466-24.687-3.261 5.124-5.124 1.397-5.124-0.932 0.466-3.726-1.397-3.261-2.795-4.658-5.124-4.658-8.384-9.782-12.11-17.7 2.329-6.055 2.795-14.905-4.658-19.563-2.329-1.397-5.124-3.726-6.521-7.453-1.863-5.124-5.124-11.179-4.193-19.097 0.466-2.329-6.987 5.124-11.179 1.863-18.166-12.576-36.332-27.016-58.224-39.127-11.645 0-20.029-4.192-24.221-9.316-3.726-4.658-0.932-10.713 4.658-11.179 3.261 0 6.987-0.932 9.782 0.932 0.466-1.863 2.329-4.192 4.657-4.192M157.904 16.215l0.932 0.466c4.658 0.932 6.987 7.453 12.11 5.124 0 3.261 0.466 6.521-0.466 8.85-1.397 3.726-5.59 3.726-8.85 3.726-31.208-1.863-49.374 11.179-68.471 22.358-5.124 3.261-10.713 5.59-14.906 9.782-20.029 18.632-41.921 35.866-47.045 70.335l-4.192 38.195c-0.466 4.192-5.124 8.384-4.192 13.508l3.26 22.824c-3.261-3.261-5.124 0.932-4.192 2.795 0.466 1.397 2.329 6.055 5.124 1.863 3.726 6.987 7.453 20.495 12.576 26.55 15.837 18.632 36.332 35.4 53.101 52.169 4.192-0.932 7.453-0.932 8.384-3.727 1.397 2.795-1.397 5.59-3.726 6.056 7.453 4.658 15.837 8.85 27.016 9.781 14.44 0.932 27.948 3.261 40.524 6.522 6.521-1.863 13.042-2.795 20.029-3.261 2.329 0 3.726-3.726 6.521-4.658l0.466-4.658c2.795 4.192 2.329-1.397 0.466-4.192 3.261 2.795 4.192 5.124 5.589 6.987 0-1.397 3.726-6.521 3.727-0.466l0.931-6.055c1.397-0.932 1.863 5.124 3.261 0.931 1.397-4.192 4.192-0.932 6.987-2.329-0.932 1.863-0.466 5.59 2.794 3.261l3.727-3.261c2.329 5.59 6.055 3.261 7.918 2.329 20.495-13.042 40.99-28.413 60.553-43.784l-0.466 6.055 2.329-7.453c2.329 2.329 4.192 0.466 5.124-0.931 2.795-4.658 6.521-9.316 12.577-13.508-7.453 20.029-16.303 35.866-27.482 48.908l-4.658 5.59c0 3.261-0.932 7.453-4.658 7.918-1.863 0.466-5.59-0.932-8.384 1.863-1.397 1.863 3.261 5.59-0.466 2.795-3.261-2.329-6.521 0-10.248 0.932-2.795 0.932 1.863 3.726 2.795 5.589 0.932 1.863 1.863 3.726 1.398 6.056l-5.124-5.59c-6.055 3.261-9.782 9.316-14.906 13.974-2.329 1.863-1.397 5.124-1.397 7.918-3.261 0-6.987-0.932-8.85 0.932-1.397 1.863-0.932 4.658-0.932 7.453-4.658-0.466-5.124-7.453-9.315-6.056-4.192 0.932-8.85 1.397-12.577 3.727 2.795 5.59-4.658 2.329-3.726 3.26-6.987-4.192-13.042-7.453-20.495-4.658-15.837-5.124-35.4-2.795-49.84-0.931 0-2.329 0.466-4.658-0.466-5.124-0.932 2.329-3.726 1.397-3.26 1.397-8.85-6.055-17.7-9.782-27.016-14.905-8.384 0.932-16.303-3.261-18.632-5.59-6.521-6.055-13.974-2.795-20.029-4.192-13.042-3.261-17.7-16.769-19.098-26.084-0.932-4.658-4.658-6.521-6.055-6.056-6.055-19.563-15.371-37.263-22.824-55.429-1.863-4.658-1.397-9.316-1.397-14.44 2.329 0.932 4.658 0.466 4.192-2.794-2.329-15.371-7.918-27.016-13.974-38.195 3.261-15.837 3.726-34.469 11.179-48.443 6.521-12.576 18.632-19.098 27.016-29.811 2.795-3.726 2.795-8.85 5.59-12.11 9.316-9.316 18.632-19.098 28.879-27.482 4.658-3.726 10.247 0 17.234-1.397 2.329-8.384 11.645-15.837 20.495-13.508 3.726 0.932 11.179-8.85 13.508-9.782 3.726-1.397 1.863 3.726 1.863 6.987 8.85-6.987 20.961-10.713 32.14-14.906" fill="#5f3495" fill-rule="nonzero" stroke="none" stroke-width="1" stroke-linecap="butt" stroke-linejoin="miter" stroke-miterlimit="10" stroke-dasharray="" stroke-dashoffset="0" font-family="none" font-weight="none" font-size="none" text-anchor="none" style="mix-blend-mode: normal" data-fill-palette-color="tertiary"></path></g><g transform="matrix(1,0,0,1,95.05982688145458,90)"><svg viewBox="0 0 129.88034623709083 180" height="180" width="129.88034623709083"><g><svg viewBox="0 0 129.88034623709083 180" height="180" width="129.88034623709083"><g><svg viewBox="0 0 192.00000000000003 266.09106767325864" height="180" width="129.88034623709083"><g transform="matrix(1,0,0,1,0,133.12874158143777)"><svg viewBox="0 0 192.00000000000003 132.9623260918209" height="132.9623260918209" width="192.00000000000003"><g><svg viewBox="0 0 192.00000000000003 132.9623260918209" height="132.9623260918209" width="192.00000000000003"><g><svg viewBox="0 0 192.00000000000003 99.17158081705152" height="99.17158081705152" width="192.00000000000003"><g transform="matrix(1,0,0,1,0,0)"><svg width="192.00000000000003" viewBox="7.079999923706055 -35.0099983215332 68.72000122070312 35.5" height="99.17158081705152" data-palette-color="#5f3495"><path d="M7.08 0L7.08-34.69 12.94-34.69 24.07-13.65 35.38-34.69 40.87-34.69 40.87 0 36.72 0 36.72-28.74 26.05-9.94 21.9-9.94 11.23-28.74 11.23 0 7.08 0ZM66.04-35.01L66.04-35.01Q70.04-35.01 74.66-33.62L74.66-33.62 73.31-29.83Q68.92-31.1 65.7-31.1L65.7-31.1Q62.08-31.1 59.58-29.58 57.08-28.05 57.08-25.63L57.08-25.63Q57.08-24.29 57.88-23.24 58.69-22.19 60.01-21.53 61.33-20.87 63.01-20.23 64.69-19.58 66.44-19.04 68.19-18.51 69.87-17.68 71.56-16.85 72.87-15.86 74.19-14.87 75-13.28 75.8-11.69 75.8-9.69L75.8-9.69Q75.8-8.3 75.36-6.92 74.92-5.54 73.9-4.19 72.87-2.83 71.36-1.81 69.85-0.78 67.54-0.15 65.23 0.49 62.4 0.49 59.57 0.49 57.19-0.1 54.81-0.68 51.85-1.86L51.85-1.86 53.27-5.88Q59.37-3.61 62.91-3.61L62.91-3.61Q66.62-3.61 68.96-5.1 71.29-6.59 71.29-9.08L71.29-9.08Q71.29-10.74 70.25-11.95 69.21-13.16 67.56-13.9 65.92-14.65 63.91-15.3 61.91-15.94 59.92-16.69 57.93-17.43 56.28-18.41 54.64-19.38 53.6-21.04 52.56-22.71 52.56-24.95L52.56-24.95Q52.56-26.95 53.53-28.78 54.49-30.62 56.2-31.99 57.91-33.37 60.47-34.19 63.03-35.01 66.04-35.01Z" opacity="1" transform="matrix(1,0,0,1,0,0)" fill="#ffffff" class="undefined-text-0" data-fill-palette-color="primary" id="text-0"></path></svg></g></svg></g><g transform="matrix(1,0,0,1,0,113.64309457619895)"><svg viewBox="0 0 192.00000000000003 19.31923151562197" height="19.31923151562197" width="192.00000000000003"><g transform="matrix(1,0,0,1,0,0)"><svg width="192.00000000000003" viewBox="0.9500000476837158 -37.95000076293945 515.260009765625 51.849998474121094" height="19.31923151562197" data-palette-color="#5f3495"><path d="M26.95-21L25.6-13.2 12.3-13.2 10 0 0.95 0 7.3-36 32.4-36 31-28.2 14.9-28.2 13.65-21 26.95-21ZM37.4-36L51.9-36Q57.6-36 60-33.5L60-33.5Q61.8-31.6 61.8-28.7L61.8-28.7Q61.8-27.7 61.6-26.6L61.6-26.6 60.9-22.7Q60.3-19.45 58.82-17.45 57.35-15.45 55.55-14.6L55.55-14.6 60.1 0 50 0 45.8-13.45 42.7-13.45 40.65 0 31.05 0 37.4-36ZM48.75-28.2L48.75-28.2 45-28.2 43.7-19.5 47.2-19.5Q49.85-19.5 51-20.78 52.15-22.05 52.15-24.15L52.15-24.15Q52.15-28.2 48.75-28.2ZM83.05-36.35L83.05-36.35Q95.1-36.35 95.1-26.5L95.1-26.5Q95.1-24.85 94.75-22.95L94.75-22.95 93-12.95Q91.8-6 87.8-2.65 83.8 0.7 76.55 0.7 69.3 0.7 66.45-2.65L66.45-2.65Q64.5-4.95 64.5-9L64.5-9Q64.5-10.8 64.9-12.95L64.9-12.95 66.65-22.95Q69-36.35 83.05-36.35ZM77.9-7.05L77.9-7.05Q80.4-7.05 81.9-8.35 83.4-9.65 84-13.15L84-13.15 85.7-22.75Q85.85-23.75 85.85-24.55L85.85-24.55Q85.85-28.6 81.75-28.6L81.75-28.6Q76.6-28.5 75.6-22.75L75.6-22.75 73.9-13.15Q73.7-11.9 73.7-10.55L73.7-10.55Q73.7-7.05 77.9-7.05ZM121.89-36L130.89-36 124.59 0 115.54 0 109.24-19.7 105.84 0 96.79 0 103.14-36 112.44-36 118.64-17.6 121.89-36ZM168.69-36L167.29-28.2 154.99-28.2 150.04 0 140.99 0 145.94-28.2 133.59-28.2 134.99-36 168.69-36ZM176.69 0.7L176.69 0.7Q166.29 0.7 166.29-6.5L166.29-6.5Q166.29-7.5 166.49-8.65L166.49-8.65 167.54-14.85Q168.39-19.65 171.96-22.23 175.54-24.8 181.44-24.8L181.44-24.8Q191.49-24.8 191.49-17.2L191.49-17.2Q191.49-16.1 191.29-14.8L191.29-14.8 190.69-11.25 175.44-11.25 175.24-10.1Q175.14-9.5 175.14-9L175.14-9Q175.14-6.25 178.39-6.25L178.39-6.25Q179.59-6.25 180.44-7 181.29-7.75 181.44-8.75L181.44-8.75 189.74-8.65Q188.09 0.7 176.69 0.7ZM175.94-14.3L182.69-14.3Q182.89-15.15 182.89-15.88 182.89-16.6 182.24-17.35 181.59-18.1 180.16-18.1 178.74-18.1 177.56-17.15 176.39-16.2 175.94-14.3L175.94-14.3ZM210.29-15.35L210.29-15.35Q210.29-17.5 208.21-17.5 206.14-17.5 204.79-15.95L204.79-15.95 201.99 0 193.49 0 197.74-24.05 205.64-24.05 205.09-21.1Q208.04-24.75 212.54-24.75 217.04-24.75 218.39-22.55L218.39-22.55Q219.24-21.15 219.24-19.35 219.24-17.55 218.99-16L218.99-16 217.64-8.3Q217.59-8 217.59-7.75L217.59-7.75Q217.59-6.4 219.09-6.4L219.09-6.4Q220.24-6.4 221.14-6.9L221.14-6.9 220.89-1.25Q218.54 0.7 215.54 0.7L215.54 0.7Q208.74 0.7 208.74-5L208.74-5Q208.74-6 208.94-7.15L208.94-7.15 210.14-13.8Q210.29-14.7 210.29-15.35ZM247.53-7.7L247.53-7.7Q247.53-6.4 248.86-6.4 250.18-6.4 251.08-6.9L251.08-6.9 250.83-1.25Q248.43 0.7 245.43 0.7L245.43 0.7Q239.93 0.7 239.33-3.3L239.33-3.3Q236.83 0.7 231.98 0.7L231.98 0.7Q223.78 0.7 223.78-6.35L223.78-6.35Q223.78-7.55 224.03-9L224.03-9 225.08-14.85Q225.88-19.35 228.76-22.03 231.63-24.7 236.73-24.7L236.73-24.7Q239.88-24.7 241.73-23.35L241.73-23.35 244.28-37.95 252.83-37.95 247.58-8.3Q247.53-8 247.53-7.7ZM233.38-13.85L232.73-10.1Q232.63-9.65 232.63-8.85 232.63-8.05 233.38-7.28 234.13-6.5 235.91-6.5 237.68-6.5 238.98-7.9L238.98-7.9 240.48-16.3Q239.93-17.55 237.88-17.55L237.88-17.55Q234.03-17.55 233.38-13.85L233.38-13.85ZM273.33-36L287.33-36Q293.88-36 296.68-32.7L296.68-32.7Q298.73-30.2 298.73-26.45L298.73-26.45Q298.73-25.1 298.48-23.6L298.48-23.6 296.53-12.45Q295.53-6.8 291.63-3.4 287.73 0 281.53 0L281.53 0 266.98 0 273.33-36ZM284.18-28.2L284.18-28.2 280.93-28.2 277.38-7.8 282.13-7.8Q284.48-7.8 285.8-9.08 287.13-10.35 287.63-13.25L287.63-13.25 289.08-21.45Q289.28-22.55 289.28-23.45L289.28-23.45Q289.28-28.2 284.18-28.2ZM326.93-7.8L325.53 0 300.43 0 306.78-36 331.88-36 330.48-28.2 314.38-28.2 313.23-21.45 326.53-21.45 325.13-13.65 311.83-13.65 310.83-7.8 326.93-7.8ZM344.92-8.75L346.07-8.75 355.57-36 365.32-36 351.67 0 335.67 0 335.27-36 345.07-36 344.92-8.75ZM373.92 0.7L373.92 0.7Q363.52 0.7 363.52-6.5L363.52-6.5Q363.52-7.5 363.72-8.65L363.72-8.65 364.77-14.85Q365.62-19.65 369.2-22.23 372.77-24.8 378.67-24.8L378.67-24.8Q388.72-24.8 388.72-17.2L388.72-17.2Q388.72-16.1 388.52-14.8L388.52-14.8 387.92-11.25 372.67-11.25 372.47-10.1Q372.37-9.5 372.37-9L372.37-9Q372.37-6.25 375.62-6.25L375.62-6.25Q376.82-6.25 377.67-7 378.52-7.75 378.67-8.75L378.67-8.75 386.97-8.65Q385.32 0.7 373.92 0.7ZM373.17-14.3L379.92-14.3Q380.12-15.15 380.12-15.88 380.12-16.6 379.47-17.35 378.82-18.1 377.4-18.1 375.97-18.1 374.8-17.15 373.62-16.2 373.17-14.3L373.17-14.3ZM400.72-7.7L400.72-7.7Q400.72-6.4 402.04-6.4 403.37-6.4 404.27-6.9L404.27-6.9 404.02-1.25Q401.62 0.7 398.62 0.7L398.62 0.7Q394.07 0.7 392.72-1.4L392.72-1.4Q391.87-2.75 391.87-4.35 391.87-5.95 392.07-7.15L392.07-7.15 397.52-37.95 406.02-37.95 400.77-8.3Q400.72-8 400.72-7.7ZM422.32-24.75L422.32-24.75Q427.72-24.75 430.47-22.4L430.47-22.4Q432.62-20.55 432.62-17.25L432.62-17.25Q432.62-16.15 432.37-14.85L432.37-14.85 431.32-9Q430.37-3.7 426.89-1.5 423.42 0.7 417.62 0.7 411.82 0.7 409.12-1.5L409.12-1.5Q407.12-3.15 407.12-6.45L407.12-6.45Q407.12-7.6 407.37-9L407.37-9 408.42-14.85Q410.17-24.75 422.32-24.75ZM423.02-10.1L423.67-13.85Q423.77-14.35 423.77-15.13 423.77-15.9 423.12-16.85 422.47-17.8 420.84-17.8 419.22-17.8 418.12-16.73 417.02-15.65 416.72-13.85L416.72-13.85 416.07-10.1Q415.97-9.6 415.97-8.83 415.97-8.05 416.62-7.15 417.27-6.25 418.89-6.25 420.52-6.25 421.62-7.38 422.72-8.5 423.02-10.1L423.02-10.1ZM452.91-24.7L452.91-24.7Q458.01-24.7 459.96-22L459.96-22Q461.36-20.15 461.36-17.3L461.36-17.3Q461.36-16.15 461.11-14.85L461.11-14.85 460.11-9Q459.26-4.25 456.46-1.78 453.66 0.7 449.46 0.7 445.26 0.7 443.61-1.55L443.61-1.55 440.91 13.9 432.41 13.9 439.11-24.05 446.81-24.05 446.56-22.7Q448.91-24.7 452.91-24.7ZM447.71-6.5L447.71-6.5Q449.11-6.5 450.31-7.4 451.51-8.3 451.81-10.1L451.81-10.1 452.46-13.85Q452.56-14.35 452.56-15.1 452.56-15.85 451.91-16.7 451.26-17.55 449.66-17.55L449.66-17.55Q447.06-17.55 446.26-16.3L446.26-16.3 444.76-7.9Q445.46-6.5 447.71-6.5ZM474.46 0.7L474.46 0.7Q464.06 0.7 464.06-6.5L464.06-6.5Q464.06-7.5 464.26-8.65L464.26-8.65 465.31-14.85Q466.16-19.65 469.74-22.23 473.31-24.8 479.21-24.8L479.21-24.8Q489.26-24.8 489.26-17.2L489.26-17.2Q489.26-16.1 489.06-14.8L489.06-14.8 488.46-11.25 473.21-11.25 473.01-10.1Q472.91-9.5 472.91-9L472.91-9Q472.91-6.25 476.16-6.25L476.16-6.25Q477.36-6.25 478.21-7 479.06-7.75 479.21-8.75L479.21-8.75 487.51-8.65Q485.86 0.7 474.46 0.7ZM473.71-14.3L480.46-14.3Q480.66-15.15 480.66-15.88 480.66-16.6 480.01-17.35 479.36-18.1 477.94-18.1 476.51-18.1 475.34-17.15 474.16-16.2 473.71-14.3L473.71-14.3ZM516.21-18.95L516.21-18.95Q516.21-17.25 515.63-15.65 515.06-14.05 514.51-13.3L514.51-13.3 513.96-12.6 506.41-12.6Q507.66-13.75 507.66-15.45L507.66-15.45Q507.66-16.35 507.08-16.93 506.51-17.5 505.51-17.5L505.51-17.5Q503.81-17.5 502.56-15.8L502.56-15.8 499.76 0 491.26 0 495.51-24.05 503.41-24.05 502.81-20.7Q505.66-24.75 509.71-24.75L509.71-24.75Q512.96-24.75 514.58-23.2 516.21-21.65 516.21-18.95Z" opacity="1" transform="matrix(1,0,0,1,0,0)" fill="#ffffff" class="undefined-text-1" data-fill-palette-color="secondary" id="text-1"></path></svg></g></svg></g></svg></g></svg></g><g transform="matrix(1,0,0,1,36.672000000000004,0)"><svg viewBox="0 0 118.65600000000002 118.65722782229035" height="118.65722782229035" width="118.65600000000002"><g><svg xmlns="http://www.w3.org/2000/svg" xmlns:xlink="http://www.w3.org/1999/xlink" version="1.1" x="0" y="0" viewBox="2.1510000228881836 2.1500015258789062 95.84900665283203 95.8499984741211" enable-background="new 0 0 100 100" xml:space="preserve" height="118.65722782229035" width="118.65600000000002" class="icon-icon-0" data-fill-palette-color="accent" id="icon-0"><g fill="#5f3495" data-fill-palette-color="accent"><path fill="#ffffff" d="M98 50.075C98 76.543 76.542 98 50.075 98 23.606 98 2.151 76.543 2.151 50.075c0-26.468 21.456-47.925 47.924-47.925C76.542 2.15 98 23.607 98 50.075zM49.797 6.185c-24.373 0-44.133 19.758-44.133 44.131 0 24.375 19.76 44.133 44.133 44.133S93.93 74.691 93.93 50.316C93.93 25.943 74.17 6.185 49.797 6.185z" data-fill-palette-color="accent"></path><path fill="#ffffff" d="M90.862 50.438c0 22.613-18.331 40.945-40.944 40.945-22.614 0-40.945-18.332-40.945-40.945 0-22.614 18.332-40.945 40.945-40.945C72.531 9.493 90.862 27.825 90.862 50.438zM21.963 34.746l-8.713 3.712 4.68 8.552-6.778 7.423 8.068 5.97-3.066 9.198 9.681 2.258 1.131 9.683 9.843-1.776 4.679 8.231 8.229-5.811 8.067 5.811 4.843-8.393 9.681 2.259 1.131-10.329 9.844-1.771-3.067-9.521 8.067-5.809-6.454-7.262 4.519-8.875-9.037-3.873 1.129-9.843-10.166-0.162-2.904-9.52-9.197 3.872-6.454-7.1-6.454 7.262-9.197-4.034-3.228 9.52-9.843-0.323L21.963 34.746z" data-fill-palette-color="accent"></path><path fill="#ffffff" d="M76.019 60.886l2.098 5.809-6.132 1.13-10.166-7.906-1.291 1.452 8.876 9.519-0.322 5.973-5.971-1.454L57.001 63.82c-0.675 0.37-1.38 0.693-2.111 0.963l4.671 12.562-3.229 4.841-4.355-3.389-1.265-13.12c-0.382 0.031-0.769 0.05-1.156 0.05s-0.77-0.019-1.15-0.047l-0.624 13.278-4.841 3.551-3.066-5.002 4.348-12.723c-0.708-0.261-1.391-0.568-2.047-0.924l-5.852 11.547-5.809 1.292-0.646-5.486 8.913-9.851c-0.566-0.549-1.092-1.14-1.57-1.769l-10.085 8.068-5.809-0.967 1.613-5.648 12.263-5.002h0.001c-0.312-0.77-0.563-1.569-0.748-2.394l-12.646 3.2-4.518-3.388 3.549-4.035h13.253c0.032-0.624 0.105-1.24 0.209-1.843l-0.068-0.092-13.071-2.905-2.42-4.357 5.325-2.582 11.664 5.611c0.264-0.522 0.555-1.027 0.875-1.514L26.158 34.1l-0.484-5.647h5.809l7.906 9.521c0 0 0.21 0.074 0.498 0.165 0.478-0.383 0.978-0.738 1.5-1.063-0.114-0.391-0.222-0.717-0.222-0.717L34.71 26.354l1.453-5.809 5.325 2.098 4.246 12.578c0.531-0.134 1.073-0.24 1.625-0.317l-1.354-13.067 3.712-4.034 3.712 3.872L52.007 34.94c0.646 0.103 1.274 0.246 1.891 0.426l3.565-12.401 5.486-2.743 1.937 5.971-6.779 10.488 1.776 1.614 8.23-9.682h5.81L73.438 34.1l-10.489 7.261 0.161 1.292c0 0-0.006 0.022-0.016 0.058 0.146 0.264 0.288 0.532 0.423 0.805 1.75-0.791 11.856-5.704 11.856-5.704l5.325 2.582c0 0-1.936 4.68-2.42 4.68-0.426 0-10.897 1.985-13.471 2.474 0.126 0.717 0.203 1.451 0.227 2.198l13.403-0.154 3.712 4.197-4.681 3.387-12.85-3.331c-0.186 0.776-0.428 1.532-0.727 2.256L76.019 60.886zM49.879 38.618c-1.157 0-2.098 0.94-2.098 2.098 0 1.159 0.94 2.099 2.098 2.099s2.098-0.939 2.098-2.099C51.977 39.558 51.036 38.618 49.879 38.618zM56.494 41.361c-1.158 0-2.097 0.94-2.097 2.098 0 1.159 0.938 2.099 2.097 2.099 1.159 0 2.099-0.94 2.099-2.099C58.593 42.301 57.653 41.361 56.494 41.361zM59.399 48.138c-1.158 0-2.097 0.941-2.097 2.098 0 1.158 0.938 2.097 2.097 2.097 1.159 0 2.099-0.938 2.099-2.097C61.498 49.079 60.559 48.138 59.399 48.138zM56.655 54.916c-1.157 0-2.098 0.939-2.098 2.097 0 1.16 0.94 2.097 2.098 2.097 1.159 0 2.099-0.938 2.099-2.097C58.754 55.855 57.814 54.916 56.655 54.916zM49.879 57.98c-1.157 0-2.098 0.941-2.098 2.1 0 1.157 0.94 2.097 2.098 2.097s2.098-0.939 2.098-2.097C51.977 58.922 51.036 57.98 49.879 57.98zM43.263 54.916c-1.159 0-2.097 0.939-2.097 2.097 0 1.16 0.938 2.097 2.097 2.097 1.159 0 2.098-0.937 2.098-2.097C45.361 55.855 44.422 54.916 43.263 54.916zM40.197 48.138c-1.159 0-2.097 0.941-2.097 2.098 0 1.158 0.938 2.097 2.097 2.097 1.159 0 2.098-0.938 2.098-2.097C42.295 49.079 41.356 48.138 40.197 48.138zM42.779 41.361c-1.159 0-2.097 0.94-2.097 2.098 0 1.159 0.938 2.099 2.097 2.099s2.097-0.94 2.097-2.099C44.876 42.301 43.938 41.361 42.779 41.361zM49.717 47.494c-1.516 0-2.742 1.227-2.742 2.743 0 1.515 1.227 2.741 2.742 2.741s2.742-1.227 2.742-2.741C52.459 48.721 51.232 47.494 49.717 47.494z" data-fill-palette-color="accent"></path></g></svg></g></svg></g><g></g></svg></g></svg></g></svg></g></svg></g><defs></defs></svg><rect width="320" height="360" fill="none" stroke="none" visibility="hidden"></rect></g></svg></g></svg>